<svg width="24" height="24" viewBox="0 0 24 24" fill="none" xmlns="http://www.w3.org/2000/svg">
<path d="M4.57091 10.5C5.05614 7.10771 7.97355 4.5 11.5 4.5C13.2613 4.5 14.8706 5.15045 16.1009 6.22424L13.5 8.5L21.5 10.5V1.5L19.1286 3.57501C17.1509 1.67085 14.4622 0.5 11.5 0.5C5.76198 0.5 1.05009 4.8935 0.544861 10.5H4.57091Z" fill="var(--mw-icon-background-default-selection, #B4DEFF)"/>
<path d="M1.5 21.5L1.5 12.5L9.5 14.5L6.89915 16.7757C8.12944 17.8495 9.73876 18.5 11.5 18.5C15.0265 18.5 17.9439 15.8923 18.4291 12.5H22.4552C21.9499 18.1065 17.2381 22.5 11.5 22.5C8.53784 22.5 5.84913 21.3291 3.87145 19.425L1.5 21.5Z" fill="var(--mw-icon-background-default-selection, #B4DEFF)"/>
<path d="M4.57091 10.5V11C4.8197 11 5.03064 10.8171 5.06587 10.5708L4.57091 10.5ZM16.1009 6.22424L16.4301 6.60053L16.8607 6.22377L16.4296 5.84754L16.1009 6.22424ZM13.5 8.5L13.1707 8.12371L12.4513 8.75322L13.3787 8.98507L13.5 8.5ZM21.5 10.5L21.3787 10.9851L22 11.1404V10.5H21.5ZM21.5 1.5H22V0.398116L21.1707 1.12371L21.5 1.5ZM19.1286 3.57501L18.7818 3.93519L19.1124 4.25353L19.4578 3.95129L19.1286 3.57501ZM0.544861 10.5L0.0468787 10.4551C0.0342766 10.595 0.0810566 10.7337 0.175782 10.8373C0.270508 10.941 0.404449 11 0.544861 11V10.5ZM1.5 12.5L1.62127 12.0149L0.999999 11.8596L0.999999 12.5L1.5 12.5ZM1.5 21.5L1 21.5L1 22.6019L1.82925 21.8763L1.5 21.5ZM9.5 14.5L9.82925 14.8763L10.5487 14.2468L9.62127 14.0149L9.5 14.5ZM6.89915 16.7757L6.5699 16.3995L6.13932 16.7762L6.57037 17.1524L6.89915 16.7757ZM18.4291 12.5V12C18.1803 12 17.9694 12.1829 17.9342 12.4292L18.4291 12.5ZM22.4552 12.5L22.9532 12.5449C22.9658 12.405 22.919 12.2663 22.8242 12.1627C22.7295 12.059 22.5956 12 22.4552 12V12.5ZM3.87145 19.425L4.21825 19.0648L3.88761 18.7465L3.5422 19.0487L3.87145 19.425ZM11.5 4C7.72123 4 4.5959 6.79413 4.07594 10.4292L5.06587 10.5708C5.51637 7.42128 8.22587 5 11.5 5V4ZM16.4296 5.84754C15.1118 4.6973 13.3867 4 11.5 4V5C13.1358 5 14.6294 5.60361 15.7721 6.60094L16.4296 5.84754ZM15.7716 5.84796L13.1707 8.12371L13.8293 8.87629L16.4301 6.60053L15.7716 5.84796ZM13.3787 8.98507L21.3787 10.9851L21.6213 10.0149L13.6213 8.01493L13.3787 8.98507ZM22 10.5V1.5H21V10.5H22ZM21.1707 1.12371L18.7993 3.19872L19.4578 3.95129L21.8293 1.87629L21.1707 1.12371ZM11.5 1C14.3277 1 16.8935 2.11713 18.7818 3.93519L19.4754 3.21482C17.4083 1.22458 14.5966 0 11.5 0V1ZM1.04284 10.5449C1.52506 5.19375 6.02307 1 11.5 1V0C5.50088 0 0.57512 4.59325 0.0468787 10.4551L1.04284 10.5449ZM4.57091 10H0.544861V11H4.57091V10ZM0.999999 12.5L1 21.5L2 21.5L2 12.5L0.999999 12.5ZM9.62127 14.0149L1.62127 12.0149L1.37873 12.9851L9.37873 14.9851L9.62127 14.0149ZM7.2284 17.152L9.82925 14.8763L9.17075 14.1237L6.5699 16.3995L7.2284 17.152ZM11.5 18C9.86421 18 8.37062 17.3964 7.22794 16.399L6.57037 17.1524C7.88825 18.3027 9.61332 19 11.5 19V18ZM17.9342 12.4292C17.4837 15.5787 14.7742 18 11.5 18V19C15.2788 19 18.4041 16.2059 18.9241 12.5708L17.9342 12.4292ZM22.4552 12H18.4291V13H22.4552V12ZM11.5 23C17.4991 23 22.4249 18.4067 22.9532 12.5449L21.9572 12.4551C21.475 17.8063 16.977 22 11.5 22V23ZM3.52466 19.7852C5.59175 21.7754 8.4034 23 11.5 23V22C8.67228 22 6.10651 20.8829 4.21825 19.0648L3.52466 19.7852ZM1.82925 21.8763L4.2007 19.8013L3.5422 19.0487L1.17075 21.1237L1.82925 21.8763Z" fill="var(--mw-icon-border-default-blue, #1656A7)"/>
</svg>
