<?xml version="1.0" standalone="no"?><!DOCTYPE svg PUBLIC "-//W3C//DTD SVG 1.1//EN" "http://www.w3.org/Graphics/SVG/1.1/DTD/svg11.dtd"><svg t="1709707540939" class="icon" viewBox="0 0 1024 1024" version="1.1" xmlns="http://www.w3.org/2000/svg" p-id="2965" xmlns:xlink="http://www.w3.org/1999/xlink" width="200" height="200"><path d="M915.41116 448.788343h-77.65754V25.735348a26.186845 26.186845 0 0 0-25.735348-25.735348H109.036935A25.735348 25.735348 0 0 0 83.301587 25.735348v972.525241a25.28385 25.28385 0 0 0 25.735348 25.735348h806.374225a25.28385 25.28385 0 0 0 25.28385-25.735348v-523.736899a25.28385 25.28385 0 0 0-25.28385-25.735347z" fill="#036EB8" opacity=".1" p-id="2966"></path><path d="M812.018272 0H109.036935A25.735348 25.735348 0 0 0 83.301587 25.735348v972.525241a25.28385 25.28385 0 0 0 25.735348 25.735348h702.981337a25.735348 25.735348 0 0 0 25.735348-25.735348v-19.414385H128.45132V45.149733h664.152567v448.788342h45.149733V25.735348a26.186845 26.186845 0 0 0-25.735348-25.735348z" fill="#036EB8" p-id="2967"></path><path d="M914.959663 448.788343h-190.983369a25.735348 25.735348 0 0 0-25.735348 25.735347v523.736899a25.735348 25.735348 0 0 0 25.735348 25.735348h190.983369a25.735348 25.735348 0 0 0 25.735347-25.735348v-523.736899a25.735348 25.735348 0 0 0-25.735347-25.735347zM895.996775 978.846204h-152.606096V493.938075H895.996775z" fill="#036EB8" p-id="2968"></path></svg>