<?xml version="1.0" standalone="no"?><!DOCTYPE svg PUBLIC "-//W3C//DTD SVG 1.1//EN" "http://www.w3.org/Graphics/SVG/1.1/DTD/svg11.dtd"><svg t="1709707803219" class="icon" viewBox="0 0 1024 1024" version="1.1" xmlns="http://www.w3.org/2000/svg" p-id="3264" xmlns:xlink="http://www.w3.org/1999/xlink" width="200" height="200"><path d="M908.818437 581.554859l-54.176956 47.856311a34.763547 34.763547 0 0 1-22.122257 7.675069 34.312072 34.312072 0 0 1-24.37963-4.966221l-54.628431-47.856311a22.573732 22.573732 0 0 1 30.248801-33.860597l24.831104 22.122257v-67.721195H213.998976v65.463821l25.28258-22.573731a22.122257 22.122257 0 0 1 31.603224 0 21.670782 21.670782 0 0 1 0 31.603224l-54.176956 47.856311a37.02092 37.02092 0 0 1-22.573732 7.675069 35.666496 35.666496 0 0 1-22.573731-7.223594l-54.176956-48.307786a22.573732 22.573732 0 0 1 29.797325-33.860597l25.734055 22.573731v-90.294926a22.573732 22.573732 0 0 1 22.573731-22.573732h297.070309v-76.750688a22.573732 22.573732 0 0 1 22.573732-22.573731 22.573732 22.573732 0 0 1 22.573731 22.573731v81.265434h293.007038a22.573732 22.573732 0 0 1 22.573731 22.573732v90.294927l25.734054-23.025207a23.025206 23.025206 0 0 1 32.054699 0 22.122257 22.122257 0 0 1-2.257373 32.054699z" fill="#036EB8" p-id="3265"></path><path d="M340.411874 27.144009h332.28533v326.41616H340.411874z" fill="#036EB8" opacity=".1" p-id="3266"></path><path d="M27.088478 665.980616h332.28533v326.41616H27.088478zM665.47361 668.689463h332.28533v326.41616h-332.28533z" fill="#DCDDDD" p-id="3267"></path><path d="M674.503102 0.055531H347.183993A29.345851 29.345851 0 0 0 316.032243 29.401383V356.720492a29.345851 29.345851 0 0 0 29.345852 29.345851h327.319109a29.345851 29.345851 0 0 0 29.345851-29.345851V29.401383a29.345851 29.345851 0 0 0-27.539953-29.345852z m-15.801612 340.863349H361.179707V45.202995h295.715885zM356.66496 637.989188H29.345851a29.345851 29.345851 0 0 0-29.345851 29.345852V993.299725a29.345851 29.345851 0 0 0 29.345851 29.345851H356.66496a29.345851 29.345851 0 0 0 29.345852-29.345851v-325.964685a29.345851 29.345851 0 0 0-29.345852-29.345852z m-15.801612 340.863349H45.147463v-295.715885h295.715885zM993.244194 637.989188h-325.513211a29.345851 29.345851 0 0 0-29.345851 29.345852V993.299725a29.345851 29.345851 0 0 0 29.345851 29.345851H993.244194a29.345851 29.345851 0 0 0 29.345851-29.345851v-325.964685a29.345851 29.345851 0 0 0-29.345851-29.345852z m-15.801613 340.863349h-293.909986v-295.715885h295.715885z" fill="#3E3A39" p-id="3268"></path></svg>