<?xml version="1.0" standalone="no"?><!DOCTYPE svg PUBLIC "-//W3C//DTD SVG 1.1//EN" "http://www.w3.org/Graphics/SVG/1.1/DTD/svg11.dtd"><svg class="icon" width="200px" height="200.00px" viewBox="0 0 1024 1024" version="1.1" xmlns="http://www.w3.org/2000/svg"><path d="M512.8 512m-423 0a423 423 0 1 0 846 0 423 423 0 1 0-846 0Z" fill="#FF7575" /><path d="M481.3 590.7c5.3 15.8 15.8 26.2 31.5 26.2 15.8 0 26.2-10.5 31.5-26.2l21-288.7c0-31.5-26.2-52.5-52.5-52.5-31.5 0-52.5 26.2-52.5 57.8l21 283.4z m31.5 78.8c-31.5 0-52.5 21-52.5 52.5s21 52.5 52.5 52.5 52.5-21 52.5-52.5-21-52.5-52.5-52.5z m0 0" fill="#FFFFFF" /></svg>