<?xml version="1.0" standalone="no"?><!DOCTYPE svg PUBLIC "-//W3C//DTD SVG 1.1//EN" "http://www.w3.org/Graphics/SVG/1.1/DTD/svg11.dtd"><svg t="1709707780039" class="icon" viewBox="0 0 1024 1024" version="1.1" xmlns="http://www.w3.org/2000/svg" p-id="3112" xmlns:xlink="http://www.w3.org/1999/xlink" width="200" height="200"><path d="M513.529316 95.228804a22.54299 22.54299 0 0 1-22.54299-22.54299v-13.525794a22.54299 22.54299 0 0 1 22.54299-22.54299 22.54299 22.54299 0 0 1 22.542991 22.54299v13.525794a22.54299 22.54299 0 0 1-22.542991 22.54299zM513.529316 195.319681a22.99385 22.99385 0 0 1-22.54299-22.54299v-22.99385a22.54299 22.54299 0 0 1 22.54299-22.542991 22.54299 22.54299 0 0 1 22.542991 22.542991v22.99385a22.54299 22.54299 0 0 1-22.542991 22.54299zM513.529316 260.243492c-12.173215 0-22.54299 15.329233-22.54299 3.156019v-13.525794a22.54299 22.54299 0 0 1 22.54299-22.54299 22.54299 22.54299 0 0 1 22.542991 22.54299v13.525794c0 12.173215-9.918916-3.156019-22.542991-3.156019zM1001.359624 784.142584a20.288691 20.288691 0 0 1-11.271495-3.156018l-14.427514-8.115477a22.54299 22.54299 0 0 1-8.115476-30.658466 22.54299 22.54299 0 0 1 30.658466-8.115477l14.427514 8.115477a22.54299 22.54299 0 0 1-11.271495 41.929961zM917.499701 735.449726a22.99385 22.99385 0 0 1-11.271495-2.705159l-27.953308-16.230953a22.99385 22.99385 0 0 1-8.566337-30.658467A23.44471 23.44471 0 0 1 901.719607 676.387091l27.953308 16.230953a22.54299 22.54299 0 0 1 8.115477 30.658467 22.54299 22.54299 0 0 1-20.288691 12.173215z m-97.836578-56.357476a24.346429 24.346429 0 0 1-11.271495-2.705159l-27.953308-16.230953a22.99385 22.99385 0 0 1-8.115476-31.109326 22.09213 22.09213 0 0 1 30.658466-8.115477l27.953308 16.230953a22.54299 22.54299 0 0 1-11.271495 41.929962zM107.304633 735.449726a22.54299 22.54299 0 0 1-11.271495-41.929962l27.953308-17.132673a22.54299 22.54299 0 0 1 22.54299 39.224803l-27.953308 16.230953a25.699009 25.699009 0 0 1-11.271495 3.606879z m97.836578-56.357476a22.99385 22.99385 0 0 1-19.837832-11.271495 22.54299 22.54299 0 0 1 8.115477-30.658467l27.953308-16.230953a22.99385 22.99385 0 0 1 31.109326 10.369776 22.99385 22.99385 0 0 1-8.115476 31.109326L216.412706 676.387091a25.699009 25.699009 0 0 1-11.271495 2.705159zM23.44471 784.142584a22.99385 22.99385 0 0 1-19.837832-11.271495 22.54299 22.54299 0 0 1 8.566337-30.658466l13.976654-8.115477a22.54299 22.54299 0 0 1 22.54299 38.773943l-13.976654 8.115477a21.190411 21.190411 0 0 1-11.271495 3.156018z" fill="#3E3A39" p-id="3113"></path><path d="M758.34619 378.368761a11.271495 11.271495 0 0 0 0 5.410318V676.387091l-243.915154 117.674409L270.515882 676.387091V383.779079a26.600728 26.600728 0 0 0 0-6.312038l251.128911-135.257941z" fill="#036EB8" opacity=".1" p-id="3114"></path><path d="M758.34619 378.368761a11.271495 11.271495 0 0 0 0 5.410318V676.387091l-243.915154 117.674409L270.515882 676.387091V383.779079a26.600728 26.600728 0 0 0 0-6.312038l-15.329233 8.115477v293.960592l258.342667 146.529436 258.793528-146.529436V385.582518z" fill="#036EB8" opacity=".1" p-id="3115"></path><path d="M771.421124 405.871209a23.89557 23.89557 0 0 1-10.820635 0L721.375686 381.975639a22.09213 22.09213 0 0 1-9.017196-30.207606 22.09213 22.09213 0 0 1 30.658467-9.017196l39.675662 21.19041a22.99385 22.99385 0 0 1 9.017196 30.658467 22.09213 22.09213 0 0 1-20.288691 11.271495z m-518.488774-6.762897a22.99385 22.99385 0 0 1-20.288691-12.173215 22.54299 22.54299 0 0 1 9.918915-30.207607l40.126523-20.73955a22.54299 22.54299 0 0 1 30.207607 9.918915 22.09213 22.09213 0 0 1-9.468056 30.207607l-40.126523 20.739551a21.641271 21.641271 0 0 1-10.369775 2.254299z m399.461786-57.259195a20.739551 20.739551 0 0 1-10.369775-2.705159l-39.675663-21.190411a22.54299 22.54299 0 0 1-9.468056-30.658466 22.99385 22.99385 0 0 1 30.658467-9.017196l39.675662 21.19041a22.99385 22.99385 0 0 1 9.017196 30.658467 22.09213 22.09213 0 0 1-19.837831 11.722355z m-279.082219-4.057738a21.641271 21.641271 0 0 1-19.837831-12.624075 22.54299 22.54299 0 0 1 9.468056-30.207607l40.126523-20.288691a22.99385 22.99385 0 0 1 30.658466 9.468056 23.44471 23.44471 0 0 1-9.918915 31.560186l-40.126523 20.288692a22.09213 22.09213 0 0 1-10.369776 1.803439z m160.055231-60.415214a17.132673 17.132673 0 0 1-10.369776-2.705159L512.627597 270.613268l-8.566336 4.508598a22.99385 22.99385 0 0 1-20.739551-40.577382l18.936111-9.017196a24.797289 24.797289 0 0 1 21.190411 0l20.739551 11.722354a21.641271 21.641271 0 0 1 9.017196 30.207607 22.09213 22.09213 0 0 1-19.837831 9.918916z" fill="#036EB8" p-id="3116"></path><path d="M1001.810484 289.54938a26.600728 26.600728 0 0 1-10.369776 0L512.176737 47.888525 32.912766 287.295081a22.54299 22.54299 0 0 1-30.207607-10.369776 22.09213 22.09213 0 0 1 9.918916-30.207607L502.257821 2.351685a22.09213 22.09213 0 0 1 19.837832 0l489.633747 244.366013a22.09213 22.09213 0 0 1 9.918915 30.207607 21.641271 21.641271 0 0 1-19.837831 12.624075z" fill="#3E3A39" p-id="3117"></path><path d="M801.177871 383.779079v307.486386a22.54299 22.54299 0 0 1-12.624074 20.288691l-266.458144 128.044184a24.346429 24.346429 0 0 1-9.918916 2.254299 22.54299 22.54299 0 0 1-9.468056-2.254299l-266.458144-128.044184a22.54299 22.54299 0 0 1-10.820635-20.288691V383.779079a22.54299 22.54299 0 0 1 22.54299-22.54299 22.54299 22.54299 0 0 1 21.641271 16.230952 26.600728 26.600728 0 0 1 0 6.312038V676.387091l243.464294 117.674409L756.091891 676.387091V383.779079a11.271495 11.271495 0 0 1 0-5.410318 21.641271 21.641271 0 0 1 22.54299-17.583532 22.54299 22.54299 0 0 1 22.54299 22.99385z" fill="#036EB8" p-id="3118"></path><path d="M512.176737 1024a24.346429 24.346429 0 0 1-9.918916-2.254299L12.624075 783.240865a22.99385 22.99385 0 0 1-12.624075-20.288691V273.769287a23.44471 23.44471 0 0 1 10.820635-19.386972 21.641271 21.641271 0 0 1 21.641271 0l479.714831 238.955696L991.891568 253.480595a21.641271 21.641271 0 0 1 21.641271 0 23.44471 23.44471 0 0 1 10.820635 19.386972v490.084607a22.99385 22.99385 0 0 1-12.624074 20.288691l-490.084607 238.504836a22.54299 22.54299 0 0 1-9.468056 2.254299zM45.08598 748.52466l467.090757 225.429902 467.090757-225.429902V310.288931l-454.917542 225.429902a22.54299 22.54299 0 0 1-22.092131 0L45.08598 310.288931z" fill="#3E3A39" p-id="3119"></path><path d="M512.176737 1020.393122a22.54299 22.54299 0 0 1-22.54299-22.542991V526.250777a22.54299 22.54299 0 0 1 22.54299-22.542991 22.54299 22.54299 0 0 1 22.54299 22.542991v471.599354a22.54299 22.54299 0 0 1-22.54299 22.542991z" fill="#3E3A39" p-id="3120"></path></svg>